<svg xmlns="http://www.w3.org/2000/svg" xmlns:xlink="http://www.w3.org/1999/xlink" width="500" zoomAndPan="magnify" viewBox="0 0 375 374.999991" height="500" preserveAspectRatio="xMidYMid meet" version="1.0"><defs><g/><clipPath id="71006965b8"><path d="M 151.835938 117.113281 L 223.085938 117.113281 L 223.085938 198.113281 L 151.835938 198.113281 Z M 151.835938 117.113281 " clip-rule="nonzero"/></clipPath></defs><g fill="#ffffff" fill-opacity="1"><g transform="translate(105.119093, 234.988096)"><g><path d="M 15.796875 -4.59375 L 5.546875 -4.59375 L 3.59375 0 L 0.03125 0 L 9 -20.328125 L 12.515625 -20.328125 L 21.390625 0 L 17.734375 0 Z M 14.484375 -7.640625 L 10.65625 -16.65625 L 6.828125 -7.640625 Z M 14.484375 -7.640625 "/></g></g></g><g fill="#ffffff" fill-opacity="1"><g transform="translate(128.012979, 234.988096)"><g><path d="M 6.09375 -3.109375 L 14.890625 -3.109375 L 14.890625 0 L 2.671875 0 L 2.671875 -20.328125 L 6.09375 -20.328125 Z M 6.09375 -3.109375 "/></g></g></g><g fill="#ffffff" fill-opacity="1"><g transform="translate(144.987683, 234.988096)"><g><path d="M 9.34375 -20.46875 C 11.976562 -20.46875 14.347656 -19.769531 16.453125 -18.375 L 15.03125 -15.359375 C 12.96875 -16.617188 10.988281 -17.25 9.09375 -17.25 C 8.0625 -17.25 7.25 -17.0625 6.65625 -16.6875 C 6.070312 -16.320312 5.78125 -15.800781 5.78125 -15.125 C 5.78125 -14.445312 6.050781 -13.867188 6.59375 -13.390625 C 7.132812 -12.921875 7.8125 -12.570312 8.625 -12.34375 C 9.4375 -12.125 10.316406 -11.84375 11.265625 -11.5 C 12.210938 -11.164062 13.09375 -10.8125 13.90625 -10.4375 C 14.71875 -10.0625 15.390625 -9.472656 15.921875 -8.671875 C 16.453125 -7.867188 16.71875 -6.894531 16.71875 -5.75 C 16.71875 -3.96875 16.003906 -2.546875 14.578125 -1.484375 C 13.160156 -0.421875 11.320312 0.109375 9.0625 0.109375 C 7.507812 0.109375 6.003906 -0.175781 4.546875 -0.75 C 3.097656 -1.332031 1.832031 -2.117188 0.75 -3.109375 L 2.234375 -6.0625 C 3.265625 -5.113281 4.394531 -4.382812 5.625 -3.875 C 6.851562 -3.363281 8.015625 -3.109375 9.109375 -3.109375 C 10.316406 -3.109375 11.253906 -3.320312 11.921875 -3.75 C 12.585938 -4.1875 12.921875 -4.796875 12.921875 -5.578125 C 12.921875 -6.273438 12.648438 -6.859375 12.109375 -7.328125 C 11.566406 -7.804688 10.890625 -8.15625 10.078125 -8.375 C 9.265625 -8.59375 8.382812 -8.863281 7.4375 -9.1875 C 6.488281 -9.507812 5.609375 -9.847656 4.796875 -10.203125 C 3.984375 -10.554688 3.300781 -11.128906 2.75 -11.921875 C 2.207031 -12.722656 1.9375 -13.6875 1.9375 -14.8125 C 1.9375 -16.53125 2.613281 -17.898438 3.96875 -18.921875 C 5.332031 -19.953125 7.125 -20.46875 9.34375 -20.46875 Z M 9.34375 -20.46875 "/></g></g></g><g fill="#ffffff" fill-opacity="1"><g transform="translate(164.515757, 234.988096)"><g><path d="M 17.1875 -17.25 L 6.09375 -17.25 L 6.09375 -11.75 L 16.03125 -11.75 L 16.03125 -8.6875 L 6.09375 -8.6875 L 6.09375 -3.078125 L 17.53125 -3.078125 L 17.53125 0 L 2.671875 0 L 2.671875 -20.328125 L 17.1875 -20.328125 Z M 17.1875 -17.25 "/></g></g></g><g fill="#ffffff" fill-opacity="1"><g transform="translate(185.030371, 234.988096)"><g><path d="M 11.671875 -20.40625 C 13.097656 -20.40625 14.492188 -20.128906 15.859375 -19.578125 C 17.222656 -19.023438 18.398438 -18.257812 19.390625 -17.28125 L 17.390625 -14.78125 C 16.648438 -15.570312 15.773438 -16.195312 14.765625 -16.65625 C 13.765625 -17.125 12.753906 -17.359375 11.734375 -17.359375 C 9.703125 -17.359375 7.984375 -16.664062 6.578125 -15.28125 C 5.171875 -13.894531 4.46875 -12.207031 4.46875 -10.21875 C 4.46875 -8.207031 5.171875 -6.507812 6.578125 -5.125 C 7.984375 -3.738281 9.703125 -3.046875 11.734375 -3.046875 C 13.835938 -3.046875 15.722656 -3.847656 17.390625 -5.453125 L 19.421875 -3.1875 C 18.378906 -2.164062 17.160156 -1.351562 15.765625 -0.75 C 14.367188 -0.15625 12.960938 0.140625 11.546875 0.140625 C 8.566406 0.140625 6.0625 -0.847656 4.03125 -2.828125 C 2 -4.816406 0.984375 -7.269531 0.984375 -10.1875 C 0.984375 -13.070312 2.015625 -15.492188 4.078125 -17.453125 C 6.140625 -19.421875 8.671875 -20.40625 11.671875 -20.40625 Z M 11.671875 -20.40625 "/></g></g></g><g fill="#ffffff" fill-opacity="1"><g transform="translate(206.734622, 234.988096)"><g/></g></g><g fill="#ffffff" fill-opacity="1"><g transform="translate(215.701022, 234.988096)"><g><path d="M 6.09375 -3.109375 L 14.890625 -3.109375 L 14.890625 0 L 2.671875 0 L 2.671875 -20.328125 L 6.09375 -20.328125 Z M 6.09375 -3.109375 "/></g></g></g><g fill="#ffffff" fill-opacity="1"><g transform="translate(232.675722, 234.988096)"><g><path d="M 6.09375 -3.109375 L 14.890625 -3.109375 L 14.890625 0 L 2.671875 0 L 2.671875 -20.328125 L 6.09375 -20.328125 Z M 6.09375 -3.109375 "/></g></g></g><g fill="#ffffff" fill-opacity="1"><g transform="translate(249.650422, 234.988096)"><g><path d="M 11.671875 -20.40625 C 13.097656 -20.40625 14.492188 -20.128906 15.859375 -19.578125 C 17.222656 -19.023438 18.398438 -18.257812 19.390625 -17.28125 L 17.390625 -14.78125 C 16.648438 -15.570312 15.773438 -16.195312 14.765625 -16.65625 C 13.765625 -17.125 12.753906 -17.359375 11.734375 -17.359375 C 9.703125 -17.359375 7.984375 -16.664062 6.578125 -15.28125 C 5.171875 -13.894531 4.46875 -12.207031 4.46875 -10.21875 C 4.46875 -8.207031 5.171875 -6.507812 6.578125 -5.125 C 7.984375 -3.738281 9.703125 -3.046875 11.734375 -3.046875 C 13.835938 -3.046875 15.722656 -3.847656 17.390625 -5.453125 L 19.421875 -3.1875 C 18.378906 -2.164062 17.160156 -1.351562 15.765625 -0.75 C 14.367188 -0.15625 12.960938 0.140625 11.546875 0.140625 C 8.566406 0.140625 6.0625 -0.847656 4.03125 -2.828125 C 2 -4.816406 0.984375 -7.269531 0.984375 -10.1875 C 0.984375 -13.070312 2.015625 -15.492188 4.078125 -17.453125 C 6.140625 -19.421875 8.671875 -20.40625 11.671875 -20.40625 Z M 11.671875 -20.40625 "/></g></g></g><g fill="#ffffff" fill-opacity="1"><g transform="translate(109.640805, 254.205629)"><g><path d="M 7.953125 0 L 6.765625 0 L 6.765625 -4.15625 L 2.234375 -4.15625 L 2.234375 0 L 1.046875 0 L 1.046875 -8.984375 L 2.234375 -8.984375 L 2.234375 -5.125 L 6.765625 -5.125 L 6.765625 -8.984375 L 7.953125 -8.984375 Z M 7.953125 0 "/></g></g></g><g fill="#ffffff" fill-opacity="1"><g transform="translate(122.043892, 254.205629)"><g><path d="M 7.953125 -4.203125 C 7.953125 -3.316406 7.800781 -2.546875 7.5 -1.890625 C 7.207031 -1.234375 6.789062 -0.734375 6.25 -0.390625 C 5.707031 -0.046875 5.070312 0.125 4.34375 0.125 C 3.644531 0.125 3.019531 -0.046875 2.46875 -0.390625 C 1.914062 -0.742188 1.488281 -1.238281 1.1875 -1.875 C 0.882812 -2.519531 0.734375 -3.269531 0.734375 -4.125 L 0.734375 -4.765625 C 0.734375 -5.628906 0.878906 -6.394531 1.171875 -7.0625 C 1.472656 -7.726562 1.898438 -8.234375 2.453125 -8.578125 C 3.003906 -8.929688 3.632812 -9.109375 4.34375 -9.109375 C 5.0625 -9.109375 5.691406 -8.929688 6.234375 -8.578125 C 6.785156 -8.234375 7.207031 -7.726562 7.5 -7.0625 C 7.800781 -6.40625 7.953125 -5.640625 7.953125 -4.765625 Z M 6.78125 -4.78125 C 6.78125 -5.84375 6.566406 -6.660156 6.140625 -7.234375 C 5.710938 -7.804688 5.113281 -8.09375 4.34375 -8.09375 C 3.59375 -8.09375 3 -7.804688 2.5625 -7.234375 C 2.132812 -6.660156 1.914062 -5.867188 1.90625 -4.859375 L 1.90625 -4.203125 C 1.90625 -3.171875 2.117188 -2.359375 2.546875 -1.765625 C 2.984375 -1.171875 3.582031 -0.875 4.34375 -0.875 C 5.113281 -0.875 5.707031 -1.15625 6.125 -1.71875 C 6.550781 -2.28125 6.769531 -3.078125 6.78125 -4.109375 Z M 6.78125 -4.78125 "/></g></g></g><g fill="#ffffff" fill-opacity="1"><g transform="translate(134.125927, 254.205629)"><g><path d="M 2.578125 -8.984375 L 5.515625 -1.65625 L 8.453125 -8.984375 L 9.984375 -8.984375 L 9.984375 0 L 8.796875 0 L 8.796875 -3.5 L 8.90625 -7.28125 L 5.96875 0 L 5.0625 0 L 2.109375 -7.265625 L 2.234375 -3.5 L 2.234375 0 L 1.046875 0 L 1.046875 -8.984375 Z M 2.578125 -8.984375 "/></g></g></g><g fill="#ffffff" fill-opacity="1"><g transform="translate(148.554113, 254.205629)"><g><path d="M 6.125 -4.15625 L 2.234375 -4.15625 L 2.234375 -0.96875 L 6.75 -0.96875 L 6.75 0 L 1.046875 0 L 1.046875 -8.984375 L 6.6875 -8.984375 L 6.6875 -8.015625 L 2.234375 -8.015625 L 2.234375 -5.125 L 6.125 -5.125 Z M 6.125 -4.15625 "/></g></g></g><g fill="#ffffff" fill-opacity="1"><g transform="translate(159.129672, 254.205629)"><g/></g></g><g fill="#ffffff" fill-opacity="1"><g transform="translate(165.648861, 254.205629)"><g><path d="M 0.625 -2.40625 C 0.625 -2.84375 0.742188 -3.238281 0.984375 -3.59375 C 1.222656 -3.957031 1.679688 -4.382812 2.359375 -4.875 C 1.960938 -5.351562 1.695312 -5.738281 1.5625 -6.03125 C 1.425781 -6.332031 1.359375 -6.628906 1.359375 -6.921875 C 1.359375 -7.609375 1.554688 -8.144531 1.953125 -8.53125 C 2.359375 -8.914062 2.910156 -9.109375 3.609375 -9.109375 C 4.222656 -9.109375 4.726562 -8.925781 5.125 -8.5625 C 5.53125 -8.207031 5.734375 -7.753906 5.734375 -7.203125 C 5.734375 -6.847656 5.640625 -6.515625 5.453125 -6.203125 C 5.273438 -5.898438 4.957031 -5.578125 4.5 -5.234375 L 3.84375 -4.75 L 5.84375 -2.359375 C 6.125 -2.898438 6.265625 -3.492188 6.265625 -4.140625 L 7.296875 -4.140625 C 7.296875 -3.097656 7.039062 -2.226562 6.53125 -1.53125 L 7.8125 0 L 6.453125 0 L 5.84375 -0.703125 C 5.539062 -0.429688 5.1875 -0.222656 4.78125 -0.078125 C 4.375 0.0546875 3.957031 0.125 3.53125 0.125 C 2.65625 0.125 1.953125 -0.101562 1.421875 -0.5625 C 0.890625 -1.03125 0.625 -1.644531 0.625 -2.40625 Z M 3.53125 -0.8125 C 4.132812 -0.8125 4.6875 -1.039062 5.1875 -1.5 L 3 -4.125 L 2.796875 -3.96875 C 2.109375 -3.46875 1.765625 -2.945312 1.765625 -2.40625 C 1.765625 -1.925781 1.921875 -1.539062 2.234375 -1.25 C 2.546875 -0.957031 2.976562 -0.8125 3.53125 -0.8125 Z M 2.5 -6.96875 C 2.5 -6.570312 2.742188 -6.078125 3.234375 -5.484375 L 3.953125 -6 C 4.234375 -6.195312 4.425781 -6.382812 4.53125 -6.5625 C 4.632812 -6.738281 4.6875 -6.953125 4.6875 -7.203125 C 4.6875 -7.484375 4.582031 -7.710938 4.375 -7.890625 C 4.164062 -8.078125 3.90625 -8.171875 3.59375 -8.171875 C 3.257812 -8.171875 2.992188 -8.054688 2.796875 -7.828125 C 2.597656 -7.597656 2.5 -7.3125 2.5 -6.96875 Z M 2.5 -6.96875 "/></g></g></g><g fill="#ffffff" fill-opacity="1"><g transform="translate(176.897401, 254.205629)"><g/></g></g><g fill="#ffffff" fill-opacity="1"><g transform="translate(183.416591, 254.205629)"><g><path d="M 1.046875 0 L 1.046875 -8.984375 L 3.984375 -8.984375 C 4.953125 -8.984375 5.679688 -8.78125 6.171875 -8.375 C 6.671875 -7.976562 6.921875 -7.382812 6.921875 -6.59375 C 6.921875 -6.175781 6.800781 -5.804688 6.5625 -5.484375 C 6.320312 -5.160156 5.992188 -4.910156 5.578125 -4.734375 C 6.066406 -4.597656 6.453125 -4.335938 6.734375 -3.953125 C 7.015625 -3.566406 7.15625 -3.113281 7.15625 -2.59375 C 7.15625 -1.78125 6.894531 -1.144531 6.375 -0.6875 C 5.851562 -0.226562 5.113281 0 4.15625 0 Z M 2.234375 -4.203125 L 2.234375 -0.96875 L 4.1875 -0.96875 C 4.738281 -0.96875 5.171875 -1.109375 5.484375 -1.390625 C 5.804688 -1.679688 5.96875 -2.078125 5.96875 -2.578125 C 5.96875 -3.660156 5.378906 -4.203125 4.203125 -4.203125 Z M 2.234375 -5.15625 L 4.015625 -5.15625 C 4.535156 -5.15625 4.953125 -5.285156 5.265625 -5.546875 C 5.578125 -5.804688 5.734375 -6.15625 5.734375 -6.59375 C 5.734375 -7.09375 5.585938 -7.453125 5.296875 -7.671875 C 5.003906 -7.898438 4.566406 -8.015625 3.984375 -8.015625 L 2.234375 -8.015625 Z M 2.234375 -5.15625 "/></g></g></g><g fill="#ffffff" fill-opacity="1"><g transform="translate(194.677479, 254.205629)"><g><path d="M 7.375 -8.984375 L 7.375 -2.875 C 7.363281 -2.03125 7.09375 -1.335938 6.5625 -0.796875 C 6.039062 -0.253906 5.328125 0.046875 4.421875 0.109375 L 4.109375 0.125 C 3.117188 0.125 2.332031 -0.140625 1.75 -0.671875 C 1.164062 -1.203125 0.867188 -1.929688 0.859375 -2.859375 L 0.859375 -8.984375 L 2.03125 -8.984375 L 2.03125 -2.90625 C 2.03125 -2.25 2.207031 -1.738281 2.5625 -1.375 C 2.925781 -1.019531 3.441406 -0.84375 4.109375 -0.84375 C 4.773438 -0.84375 5.285156 -1.019531 5.640625 -1.375 C 5.992188 -1.738281 6.171875 -2.242188 6.171875 -2.890625 L 6.171875 -8.984375 Z M 7.375 -8.984375 "/></g></g></g><g fill="#ffffff" fill-opacity="1"><g transform="translate(206.265588, 254.205629)"><g><path d="M 3.6875 -4 C 2.675781 -4.289062 1.9375 -4.648438 1.46875 -5.078125 C 1.007812 -5.503906 0.78125 -6.03125 0.78125 -6.65625 C 0.78125 -7.363281 1.0625 -7.945312 1.625 -8.40625 C 2.1875 -8.875 2.921875 -9.109375 3.828125 -9.109375 C 4.453125 -9.109375 5.003906 -8.988281 5.484375 -8.75 C 5.960938 -8.507812 6.332031 -8.179688 6.59375 -7.765625 C 6.863281 -7.347656 7 -6.890625 7 -6.390625 L 5.8125 -6.390625 C 5.8125 -6.929688 5.640625 -7.359375 5.296875 -7.671875 C 4.953125 -7.984375 4.460938 -8.140625 3.828125 -8.140625 C 3.242188 -8.140625 2.785156 -8.007812 2.453125 -7.75 C 2.128906 -7.488281 1.96875 -7.128906 1.96875 -6.671875 C 1.96875 -6.304688 2.125 -6 2.4375 -5.75 C 2.75 -5.5 3.273438 -5.265625 4.015625 -5.046875 C 4.765625 -4.835938 5.347656 -4.609375 5.765625 -4.359375 C 6.191406 -4.109375 6.507812 -3.8125 6.71875 -3.46875 C 6.925781 -3.132812 7.03125 -2.738281 7.03125 -2.28125 C 7.03125 -1.550781 6.742188 -0.96875 6.171875 -0.53125 C 5.609375 -0.09375 4.847656 0.125 3.890625 0.125 C 3.273438 0.125 2.695312 0.00390625 2.15625 -0.234375 C 1.625 -0.472656 1.210938 -0.796875 0.921875 -1.203125 C 0.640625 -1.617188 0.5 -2.085938 0.5 -2.609375 L 1.6875 -2.609375 C 1.6875 -2.066406 1.882812 -1.632812 2.28125 -1.3125 C 2.6875 -1 3.222656 -0.84375 3.890625 -0.84375 C 4.515625 -0.84375 4.992188 -0.96875 5.328125 -1.21875 C 5.660156 -1.476562 5.828125 -1.828125 5.828125 -2.265625 C 5.828125 -2.710938 5.671875 -3.054688 5.359375 -3.296875 C 5.054688 -3.535156 4.5 -3.769531 3.6875 -4 Z M 3.6875 -4 "/></g></g></g><g fill="#ffffff" fill-opacity="1"><g transform="translate(217.156026, 254.205629)"><g><path d="M 2.3125 0 L 1.125 0 L 1.125 -8.984375 L 2.3125 -8.984375 Z M 2.3125 0 "/></g></g></g><g fill="#ffffff" fill-opacity="1"><g transform="translate(223.983914, 254.205629)"><g><path d="M 7.953125 0 L 6.765625 0 L 2.234375 -6.921875 L 2.234375 0 L 1.046875 0 L 1.046875 -8.984375 L 2.234375 -8.984375 L 6.765625 -2.03125 L 6.765625 -8.984375 L 7.953125 -8.984375 Z M 7.953125 0 "/></g></g></g><g fill="#ffffff" fill-opacity="1"><g transform="translate(236.386997, 254.205629)"><g><path d="M 6.125 -4.15625 L 2.234375 -4.15625 L 2.234375 -0.96875 L 6.75 -0.96875 L 6.75 0 L 1.046875 0 L 1.046875 -8.984375 L 6.6875 -8.984375 L 6.6875 -8.015625 L 2.234375 -8.015625 L 2.234375 -5.125 L 6.125 -5.125 Z M 6.125 -4.15625 "/></g></g></g><g fill="#ffffff" fill-opacity="1"><g transform="translate(246.96255, 254.205629)"><g><path d="M 3.6875 -4 C 2.675781 -4.289062 1.9375 -4.648438 1.46875 -5.078125 C 1.007812 -5.503906 0.78125 -6.03125 0.78125 -6.65625 C 0.78125 -7.363281 1.0625 -7.945312 1.625 -8.40625 C 2.1875 -8.875 2.921875 -9.109375 3.828125 -9.109375 C 4.453125 -9.109375 5.003906 -8.988281 5.484375 -8.75 C 5.960938 -8.507812 6.332031 -8.179688 6.59375 -7.765625 C 6.863281 -7.347656 7 -6.890625 7 -6.390625 L 5.8125 -6.390625 C 5.8125 -6.929688 5.640625 -7.359375 5.296875 -7.671875 C 4.953125 -7.984375 4.460938 -8.140625 3.828125 -8.140625 C 3.242188 -8.140625 2.785156 -8.007812 2.453125 -7.75 C 2.128906 -7.488281 1.96875 -7.128906 1.96875 -6.671875 C 1.96875 -6.304688 2.125 -6 2.4375 -5.75 C 2.75 -5.5 3.273438 -5.265625 4.015625 -5.046875 C 4.765625 -4.835938 5.347656 -4.609375 5.765625 -4.359375 C 6.191406 -4.109375 6.507812 -3.8125 6.71875 -3.46875 C 6.925781 -3.132812 7.03125 -2.738281 7.03125 -2.28125 C 7.03125 -1.550781 6.742188 -0.96875 6.171875 -0.53125 C 5.609375 -0.09375 4.847656 0.125 3.890625 0.125 C 3.273438 0.125 2.695312 0.00390625 2.15625 -0.234375 C 1.625 -0.472656 1.210938 -0.796875 0.921875 -1.203125 C 0.640625 -1.617188 0.5 -2.085938 0.5 -2.609375 L 1.6875 -2.609375 C 1.6875 -2.066406 1.882812 -1.632812 2.28125 -1.3125 C 2.6875 -1 3.222656 -0.84375 3.890625 -0.84375 C 4.515625 -0.84375 4.992188 -0.96875 5.328125 -1.21875 C 5.660156 -1.476562 5.828125 -1.828125 5.828125 -2.265625 C 5.828125 -2.710938 5.671875 -3.054688 5.359375 -3.296875 C 5.054688 -3.535156 4.5 -3.769531 3.6875 -4 Z M 3.6875 -4 "/></g></g></g><g fill="#ffffff" fill-opacity="1"><g transform="translate(257.852987, 254.205629)"><g><path d="M 3.6875 -4 C 2.675781 -4.289062 1.9375 -4.648438 1.46875 -5.078125 C 1.007812 -5.503906 0.78125 -6.03125 0.78125 -6.65625 C 0.78125 -7.363281 1.0625 -7.945312 1.625 -8.40625 C 2.1875 -8.875 2.921875 -9.109375 3.828125 -9.109375 C 4.453125 -9.109375 5.003906 -8.988281 5.484375 -8.75 C 5.960938 -8.507812 6.332031 -8.179688 6.59375 -7.765625 C 6.863281 -7.347656 7 -6.890625 7 -6.390625 L 5.8125 -6.390625 C 5.8125 -6.929688 5.640625 -7.359375 5.296875 -7.671875 C 4.953125 -7.984375 4.460938 -8.140625 3.828125 -8.140625 C 3.242188 -8.140625 2.785156 -8.007812 2.453125 -7.75 C 2.128906 -7.488281 1.96875 -7.128906 1.96875 -6.671875 C 1.96875 -6.304688 2.125 -6 2.4375 -5.75 C 2.75 -5.5 3.273438 -5.265625 4.015625 -5.046875 C 4.765625 -4.835938 5.347656 -4.609375 5.765625 -4.359375 C 6.191406 -4.109375 6.507812 -3.8125 6.71875 -3.46875 C 6.925781 -3.132812 7.03125 -2.738281 7.03125 -2.28125 C 7.03125 -1.550781 6.742188 -0.96875 6.171875 -0.53125 C 5.609375 -0.09375 4.847656 0.125 3.890625 0.125 C 3.273438 0.125 2.695312 0.00390625 2.15625 -0.234375 C 1.625 -0.472656 1.210938 -0.796875 0.921875 -1.203125 C 0.640625 -1.617188 0.5 -2.085938 0.5 -2.609375 L 1.6875 -2.609375 C 1.6875 -2.066406 1.882812 -1.632812 2.28125 -1.3125 C 2.6875 -1 3.222656 -0.84375 3.890625 -0.84375 C 4.515625 -0.84375 4.992188 -0.96875 5.328125 -1.21875 C 5.660156 -1.476562 5.828125 -1.828125 5.828125 -2.265625 C 5.828125 -2.710938 5.671875 -3.054688 5.359375 -3.296875 C 5.054688 -3.535156 4.5 -3.769531 3.6875 -4 Z M 3.6875 -4 "/></g></g></g><g fill="#ffffff" fill-opacity="1"><g transform="translate(146.894708, 271.455628)"><g><path d="M 3.6875 -4 C 2.675781 -4.289062 1.9375 -4.648438 1.46875 -5.078125 C 1.007812 -5.503906 0.78125 -6.03125 0.78125 -6.65625 C 0.78125 -7.363281 1.0625 -7.945312 1.625 -8.40625 C 2.1875 -8.875 2.921875 -9.109375 3.828125 -9.109375 C 4.453125 -9.109375 5.003906 -8.988281 5.484375 -8.75 C 5.960938 -8.507812 6.332031 -8.179688 6.59375 -7.765625 C 6.863281 -7.347656 7 -6.890625 7 -6.390625 L 5.8125 -6.390625 C 5.8125 -6.929688 5.640625 -7.359375 5.296875 -7.671875 C 4.953125 -7.984375 4.460938 -8.140625 3.828125 -8.140625 C 3.242188 -8.140625 2.785156 -8.007812 2.453125 -7.75 C 2.128906 -7.488281 1.96875 -7.128906 1.96875 -6.671875 C 1.96875 -6.304688 2.125 -6 2.4375 -5.75 C 2.75 -5.5 3.273438 -5.265625 4.015625 -5.046875 C 4.765625 -4.835938 5.347656 -4.609375 5.765625 -4.359375 C 6.191406 -4.109375 6.507812 -3.8125 6.71875 -3.46875 C 6.925781 -3.132812 7.03125 -2.738281 7.03125 -2.28125 C 7.03125 -1.550781 6.742188 -0.96875 6.171875 -0.53125 C 5.609375 -0.09375 4.847656 0.125 3.890625 0.125 C 3.273438 0.125 2.695312 0.00390625 2.15625 -0.234375 C 1.625 -0.472656 1.210938 -0.796875 0.921875 -1.203125 C 0.640625 -1.617188 0.5 -2.085938 0.5 -2.609375 L 1.6875 -2.609375 C 1.6875 -2.066406 1.882812 -1.632812 2.28125 -1.3125 C 2.6875 -1 3.222656 -0.84375 3.890625 -0.84375 C 4.515625 -0.84375 4.992188 -0.96875 5.328125 -1.21875 C 5.660156 -1.476562 5.828125 -1.828125 5.828125 -2.265625 C 5.828125 -2.710938 5.671875 -3.054688 5.359375 -3.296875 C 5.054688 -3.535156 4.5 -3.769531 3.6875 -4 Z M 3.6875 -4 "/></g></g></g><g fill="#ffffff" fill-opacity="1"><g transform="translate(157.78515, 271.455628)"><g><path d="M 6.125 -4.15625 L 2.234375 -4.15625 L 2.234375 -0.96875 L 6.75 -0.96875 L 6.75 0 L 1.046875 0 L 1.046875 -8.984375 L 6.6875 -8.984375 L 6.6875 -8.015625 L 2.234375 -8.015625 L 2.234375 -5.125 L 6.125 -5.125 Z M 6.125 -4.15625 "/></g></g></g><g fill="#ffffff" fill-opacity="1"><g transform="translate(168.360707, 271.455628)"><g><path d="M 7.65625 -2.84375 C 7.539062 -1.894531 7.1875 -1.160156 6.59375 -0.640625 C 6.007812 -0.128906 5.226562 0.125 4.25 0.125 C 3.1875 0.125 2.332031 -0.253906 1.6875 -1.015625 C 1.050781 -1.773438 0.734375 -2.796875 0.734375 -4.078125 L 0.734375 -4.9375 C 0.734375 -5.769531 0.878906 -6.503906 1.171875 -7.140625 C 1.472656 -7.773438 1.894531 -8.257812 2.4375 -8.59375 C 2.988281 -8.9375 3.625 -9.109375 4.34375 -9.109375 C 5.300781 -9.109375 6.066406 -8.84375 6.640625 -8.3125 C 7.222656 -7.78125 7.5625 -7.039062 7.65625 -6.09375 L 6.46875 -6.09375 C 6.363281 -6.8125 6.140625 -7.332031 5.796875 -7.65625 C 5.453125 -7.976562 4.96875 -8.140625 4.34375 -8.140625 C 3.59375 -8.140625 3 -7.859375 2.5625 -7.296875 C 2.132812 -6.734375 1.921875 -5.9375 1.921875 -4.90625 L 1.921875 -4.03125 C 1.921875 -3.0625 2.125 -2.285156 2.53125 -1.703125 C 2.9375 -1.128906 3.507812 -0.84375 4.25 -0.84375 C 4.90625 -0.84375 5.410156 -0.988281 5.765625 -1.28125 C 6.117188 -1.582031 6.351562 -2.101562 6.46875 -2.84375 Z M 7.65625 -2.84375 "/></g></g></g><g fill="#ffffff" fill-opacity="1"><g transform="translate(179.97969, 271.455628)"><g><path d="M 7.375 -8.984375 L 7.375 -2.875 C 7.363281 -2.03125 7.09375 -1.335938 6.5625 -0.796875 C 6.039062 -0.253906 5.328125 0.046875 4.421875 0.109375 L 4.109375 0.125 C 3.117188 0.125 2.332031 -0.140625 1.75 -0.671875 C 1.164062 -1.203125 0.867188 -1.929688 0.859375 -2.859375 L 0.859375 -8.984375 L 2.03125 -8.984375 L 2.03125 -2.90625 C 2.03125 -2.25 2.207031 -1.738281 2.5625 -1.375 C 2.925781 -1.019531 3.441406 -0.84375 4.109375 -0.84375 C 4.773438 -0.84375 5.285156 -1.019531 5.640625 -1.375 C 5.992188 -1.738281 6.171875 -2.242188 6.171875 -2.890625 L 6.171875 -8.984375 Z M 7.375 -8.984375 "/></g></g></g><g fill="#ffffff" fill-opacity="1"><g transform="translate(191.567799, 271.455628)"><g><path d="M 4.34375 -3.640625 L 2.234375 -3.640625 L 2.234375 0 L 1.03125 0 L 1.03125 -8.984375 L 4.015625 -8.984375 C 5.023438 -8.984375 5.800781 -8.753906 6.34375 -8.296875 C 6.894531 -7.835938 7.171875 -7.164062 7.171875 -6.28125 C 7.171875 -5.71875 7.019531 -5.226562 6.71875 -4.8125 C 6.414062 -4.40625 5.992188 -4.097656 5.453125 -3.890625 L 7.5625 -0.078125 L 7.5625 0 L 6.296875 0 Z M 2.234375 -4.609375 L 4.046875 -4.609375 C 4.640625 -4.609375 5.109375 -4.757812 5.453125 -5.0625 C 5.796875 -5.363281 5.96875 -5.769531 5.96875 -6.28125 C 5.96875 -6.832031 5.800781 -7.253906 5.46875 -7.546875 C 5.144531 -7.847656 4.671875 -8.003906 4.046875 -8.015625 L 2.234375 -8.015625 Z M 2.234375 -4.609375 "/></g></g></g><g fill="#ffffff" fill-opacity="1"><g transform="translate(202.74225, 271.455628)"><g><path d="M 2.3125 0 L 1.125 0 L 1.125 -8.984375 L 2.3125 -8.984375 Z M 2.3125 0 "/></g></g></g><g fill="#ffffff" fill-opacity="1"><g transform="translate(209.570144, 271.455628)"><g><path d="M 7.25 -8.015625 L 4.359375 -8.015625 L 4.359375 0 L 3.1875 0 L 3.1875 -8.015625 L 0.296875 -8.015625 L 0.296875 -8.984375 L 7.25 -8.984375 Z M 7.25 -8.015625 "/></g></g></g><g fill="#ffffff" fill-opacity="1"><g transform="translate(220.5038, 271.455628)"><g><path d="M 3.78125 -4.46875 L 6.125 -8.984375 L 7.46875 -8.984375 L 4.375 -3.34375 L 4.375 0 L 3.1875 0 L 3.1875 -3.34375 L 0.09375 -8.984375 L 1.453125 -8.984375 Z M 3.78125 -4.46875 "/></g></g></g><g clip-path="url(#71006965b8)"><path fill="#ffffff" d="M 193.769531 137.453125 C 192.597656 137.273438 191.335938 137.09375 190.164062 137.003906 L 190.164062 128.8125 C 190.164062 128.363281 190.34375 127.914062 190.703125 127.554688 L 195.570312 122.695312 L 195.570312 118.914062 C 195.570312 117.921875 196.378906 117.113281 197.371094 117.113281 C 198.363281 117.113281 199.171875 117.921875 199.171875 118.914062 L 199.171875 123.414062 C 199.171875 123.863281 198.992188 124.3125 198.632812 124.671875 L 193.769531 129.535156 Z M 199.171875 138.714844 C 200.34375 139.074219 201.605469 139.523438 202.777344 140.0625 L 202.777344 133.132812 L 207.640625 128.273438 C 208.003906 127.914062 208.183594 127.464844 208.183594 127.011719 L 208.183594 118.914062 C 208.183594 117.921875 207.371094 117.113281 206.378906 117.113281 C 205.390625 117.113281 204.578125 117.921875 204.578125 118.914062 L 204.578125 126.292969 L 199.714844 131.152344 C 199.351562 131.511719 199.171875 131.964844 199.171875 132.414062 Z M 216.292969 140.332031 L 221.15625 135.472656 C 221.515625 135.113281 221.695312 134.664062 221.695312 134.214844 L 221.695312 129.445312 C 221.15625 129.625 220.527344 129.714844 219.894531 129.714844 C 219.265625 129.714844 218.632812 129.625 218.09375 129.445312 L 218.09375 133.492188 L 213.226562 138.355469 C 212.867188 138.714844 212.6875 139.164062 212.6875 139.613281 L 212.6875 146.003906 L 216.292969 148.523438 Z M 219.894531 126.113281 C 221.425781 126.113281 222.597656 124.855469 222.597656 123.414062 C 222.597656 121.882812 221.425781 120.714844 219.894531 120.714844 C 218.363281 120.714844 217.191406 121.882812 217.191406 123.414062 C 217.191406 124.855469 218.363281 126.113281 219.894531 126.113281 Z M 181.15625 129.535156 L 181.15625 137.453125 C 182.324219 137.273438 183.585938 137.09375 184.757812 137.003906 L 184.757812 128.8125 C 184.757812 128.363281 184.578125 127.914062 184.21875 127.554688 L 179.351562 122.695312 L 179.351562 118.914062 C 179.351562 117.921875 178.542969 117.113281 177.550781 117.113281 C 176.558594 117.113281 175.75 117.921875 175.75 118.914062 L 175.75 123.414062 C 175.75 123.863281 175.929688 124.3125 176.289062 124.671875 Z M 172.144531 133.132812 L 172.144531 140.0625 C 173.316406 139.523438 174.578125 139.074219 175.75 138.714844 L 175.75 132.414062 C 175.75 131.964844 175.570312 131.511719 175.207031 131.152344 L 170.34375 126.292969 L 170.34375 118.914062 C 170.34375 117.921875 169.53125 117.113281 168.542969 117.113281 C 167.550781 117.113281 166.738281 117.921875 166.738281 118.914062 L 166.738281 127.011719 C 166.738281 127.464844 166.917969 127.914062 167.28125 128.273438 Z M 156.828125 129.445312 C 156.289062 129.625 155.660156 129.714844 155.027344 129.714844 C 154.398438 129.714844 153.765625 129.625 153.226562 129.445312 L 153.226562 134.214844 C 153.226562 134.664062 153.40625 135.113281 153.765625 135.472656 L 158.632812 140.332031 L 158.632812 148.523438 L 162.234375 146.003906 L 162.234375 139.613281 C 162.234375 139.164062 162.054688 138.714844 161.695312 138.355469 L 156.828125 133.492188 Z M 155.027344 126.113281 C 156.558594 126.113281 157.730469 124.855469 157.730469 123.414062 C 157.730469 121.882812 156.558594 120.714844 155.027344 120.714844 C 153.496094 120.714844 152.324219 121.882812 152.324219 123.414062 C 152.324219 124.855469 153.496094 126.113281 155.027344 126.113281 Z M 181.15625 185.695312 L 176.289062 190.554688 C 175.929688 190.914062 175.75 191.363281 175.75 191.8125 L 175.75 196.3125 C 175.75 197.304688 176.558594 198.113281 177.550781 198.113281 C 178.542969 198.113281 179.351562 197.304688 179.351562 196.3125 L 179.351562 192.535156 L 184.21875 187.671875 C 184.578125 187.3125 184.757812 186.863281 184.757812 186.414062 L 184.757812 178.222656 C 183.585938 178.132812 182.324219 178.042969 181.15625 177.773438 Z M 175.75 176.511719 C 174.578125 176.152344 173.316406 175.703125 172.144531 175.164062 L 172.144531 182.09375 L 167.28125 186.953125 C 166.917969 187.3125 166.738281 187.761719 166.738281 188.214844 L 166.738281 196.3125 C 166.738281 197.304688 167.550781 198.113281 168.542969 198.113281 C 169.53125 198.113281 170.34375 197.304688 170.34375 196.3125 L 170.34375 188.933594 L 175.207031 184.074219 C 175.570312 183.714844 175.75 183.261719 175.75 182.8125 Z M 158.632812 174.894531 L 153.765625 179.753906 C 153.40625 180.113281 153.226562 180.5625 153.226562 181.011719 L 153.226562 185.785156 C 153.765625 185.605469 154.398438 185.511719 155.027344 185.511719 C 155.660156 185.511719 156.289062 185.605469 156.828125 185.785156 L 156.828125 181.734375 L 161.695312 176.875 C 162.054688 176.511719 162.234375 176.0625 162.234375 175.613281 L 162.234375 169.222656 L 158.632812 166.703125 Z M 155.027344 189.113281 C 153.496094 189.113281 152.324219 190.285156 152.324219 191.8125 C 152.324219 193.253906 153.496094 194.511719 155.027344 194.511719 C 156.558594 194.511719 157.730469 193.253906 157.730469 191.8125 C 157.730469 190.285156 156.558594 189.113281 155.027344 189.113281 Z M 193.769531 185.695312 L 193.769531 177.773438 C 192.597656 177.953125 191.335938 178.132812 190.164062 178.222656 L 190.164062 186.414062 C 190.164062 186.863281 190.34375 187.3125 190.703125 187.671875 L 195.570312 192.535156 L 195.570312 196.3125 C 195.570312 197.304688 196.378906 198.113281 197.371094 198.113281 C 198.363281 198.113281 199.171875 197.304688 199.171875 196.3125 L 199.171875 191.8125 C 199.171875 191.363281 198.992188 190.914062 198.632812 190.554688 Z M 202.777344 182.09375 L 202.777344 175.164062 C 201.605469 175.703125 200.34375 176.152344 199.171875 176.511719 L 199.171875 182.8125 C 199.171875 183.261719 199.351562 183.714844 199.714844 184.074219 L 204.578125 188.933594 L 204.578125 196.3125 C 204.578125 197.304688 205.390625 198.113281 206.378906 198.113281 C 207.371094 198.113281 208.183594 197.304688 208.183594 196.3125 L 208.183594 188.214844 C 208.183594 187.761719 208.003906 187.3125 207.640625 186.953125 Z M 218.09375 185.785156 C 218.632812 185.605469 219.265625 185.511719 219.894531 185.511719 C 220.527344 185.511719 221.15625 185.605469 221.695312 185.785156 L 221.695312 181.011719 C 221.695312 180.5625 221.515625 180.113281 221.15625 179.753906 L 216.292969 174.894531 L 216.292969 166.703125 L 212.6875 169.222656 L 212.6875 175.613281 C 212.6875 176.0625 212.867188 176.511719 213.226562 176.875 L 218.09375 181.734375 Z M 219.894531 189.113281 C 218.363281 189.113281 217.191406 190.285156 217.191406 191.8125 C 217.191406 193.253906 218.363281 194.511719 219.894531 194.511719 C 221.425781 194.511719 222.597656 193.253906 222.597656 191.8125 C 222.597656 190.285156 221.425781 189.113281 219.894531 189.113281 Z M 171.605469 170.933594 C 168.542969 167.332031 166.738281 162.652344 166.738281 157.613281 C 166.738281 152.574219 168.542969 147.894531 171.605469 144.292969 C 170.164062 145.011719 168.722656 145.914062 167.371094 146.8125 L 151.875 157.613281 L 167.371094 168.414062 C 168.722656 169.3125 170.164062 170.214844 171.605469 170.933594 Z M 203.316406 144.292969 C 206.378906 147.894531 208.183594 152.574219 208.183594 157.613281 C 208.183594 162.652344 206.378906 167.332031 203.316406 170.933594 C 204.757812 170.214844 206.199219 169.402344 207.550781 168.414062 L 223.046875 157.613281 L 207.550781 146.8125 C 206.199219 145.914062 204.757812 145.011719 203.316406 144.292969 Z M 187.460938 174.714844 C 178 174.714844 170.34375 167.0625 170.34375 157.613281 C 170.34375 148.164062 178 140.511719 187.460938 140.511719 C 196.921875 140.511719 204.578125 148.164062 204.578125 157.613281 C 204.578125 167.0625 196.921875 174.714844 187.460938 174.714844 Z M 199.171875 157.613281 C 199.171875 151.132812 193.949219 145.914062 187.460938 145.914062 C 180.972656 145.914062 175.75 151.132812 175.75 157.613281 C 175.75 164.09375 180.972656 169.3125 187.460938 169.3125 C 193.949219 169.3125 199.171875 164.09375 199.171875 157.613281 Z M 189.261719 149.695312 L 189.261719 154.914062 C 189.261719 155.902344 188.453125 156.714844 187.460938 156.714844 C 186.46875 156.714844 185.660156 155.902344 185.660156 154.914062 L 185.660156 149.695312 C 182.054688 150.503906 179.351562 153.742188 179.351562 157.613281 C 179.351562 162.113281 182.957031 165.714844 187.460938 165.714844 C 191.964844 165.714844 195.570312 162.113281 195.570312 157.613281 C 195.570312 153.742188 192.867188 150.503906 189.261719 149.695312 Z M 189.261719 149.695312 " fill-opacity="1" fill-rule="nonzero"/></g></svg>